<?xml version="1.0" standalone="no"?>
<!DOCTYPE svg PUBLIC "-//W3C//DTD SVG 20010904//EN"
 "http://www.w3.org/TR/2001/REC-SVG-20010904/DTD/svg10.dtd">
<svg version="1.0" xmlns="http://www.w3.org/2000/svg"
 width="130.000000pt" height="130.000000pt" viewBox="0 0 130.000000 130.000000"
 preserveAspectRatio="xMidYMid meet">

<g transform="translate(0.000000,130.000000) scale(0.100000,-0.100000)"
fill="#000000" stroke="none">
<path d="M554 1191 c-199 -32 -381 -165 -472 -347 -49 -98 -79 -242 -53 -258
5 -4 32 -8 60 -10 64 -6 126 -40 154 -86 19 -29 23 -55 28 -160 6 -138 26
-205 72 -235 36 -23 76 -10 92 29 7 17 61 213 120 436 58 223 108 411 110 418
9 28 34 9 55 -42 32 -79 51 -92 191 -130 149 -41 175 -62 165 -133 -8 -59 -20
-78 -68 -113 -110 -80 -135 -186 -77 -341 35 -96 43 -107 86 -126 28 -11 38
-11 67 1 38 16 105 95 141 166 75 149 92 343 41 496 -67 206 -235 367 -439
418 -73 19 -207 27 -273 17z"/>
<path d="M820 761 c-5 -11 -7 -27 -4 -35 8 -21 60 -21 68 0 8 21 8 20 -10 38
-21 21 -41 20 -54 -3z"/>
</g>
</svg>
